<svg width="23" height="31" viewBox="0 0 23 31" fill="none" xmlns="http://www.w3.org/2000/svg">
<path fill-rule="evenodd" clip-rule="evenodd" d="M11.4442 15.3428H11.4894C15.6194 15.3428 18.9794 11.9828 18.9794 7.85279C18.9794 3.72279 15.6194 0.361328 11.4894 0.361328C7.35797 0.361328 3.99797 3.72279 3.99797 7.84841C3.99067 9.84487 4.76213 11.7232 6.16797 13.1392C7.57234 14.5538 9.4463 15.337 11.4442 15.3428ZM6.18547 7.85279C6.18547 4.92883 8.56547 2.54883 11.4894 2.54883C14.4134 2.54883 16.7919 4.92883 16.7919 7.85279C16.7919 10.7767 14.4134 13.1553 11.4894 13.1553H11.4486C10.0369 13.1524 8.71422 12.5982 7.71963 11.5963C6.72505 10.5959 6.18109 9.26737 6.18547 7.85279Z" fill="#0081C9"/>
<path fill-rule="evenodd" clip-rule="evenodd" d="M0.424713 25.3527C0.424713 30.6391 8.76055 30.6391 11.4993 30.6391C14.238 30.6391 22.5753 30.6391 22.5753 25.3206C22.5753 21.2475 17.5033 17.8058 11.4993 17.8058C5.4968 17.8058 0.424713 21.262 0.424713 25.3527ZM2.61221 25.3527C2.61221 22.8225 6.41263 19.9933 11.4993 19.9933C16.5874 19.9933 20.3878 22.8064 20.3878 25.3206C20.3878 27.3972 17.3968 28.4516 11.4993 28.4516C5.60325 28.4516 2.61221 27.4089 2.61221 25.3527Z" fill="#0081C9"/>
</svg>
