<svg width="40" height="38" viewBox="0 0 40 38" fill="none" xmlns="http://www.w3.org/2000/svg">
<g clip-path="url(#clip0_119_986)">
<path d="M9.07802 19.7759V7.86133H3.15394C1.4101 7.86133 0 9.10778 0 10.6402V35.2686C0 36.5077 1.70213 37.1236 2.69504 36.2511L9.21152 30.5248H27.768C29.5119 30.5248 30.922 29.2856 30.922 27.7532V22.5475H12.2403C10.4965 22.5475 9.07802 21.3083 9.07802 19.7759Z" fill="#0081C9"/>
<path d="M36.846 0.00134277H12.2402C10.4964 0.00134277 9.0863 1.24046 9.0863 2.77287V7.86132H27.768C29.5118 7.86132 30.9219 9.10044 30.9219 10.6328V22.5401H36.846C38.5898 22.5401 39.9999 21.301 39.9999 19.7686V2.77287C39.9999 1.24046 38.5898 0.00134277 36.846 0.00134277Z" fill="#0081C9"/>
<path d="M27.768 7.86133H9.078V19.7686C9.078 21.301 10.4881 22.5401 12.2319 22.5401H30.9136V10.6402C30.922 9.10778 29.5119 7.86133 27.768 7.86133Z" fill="white"/>
</g>
<defs>
<clipPath id="clip0_119_986">
<rect width="40" height="37.125" fill="white"/>
</clipPath>
</defs>
</svg>
