<svg width="34" height="34" viewBox="0 0 34 34" fill="none" xmlns="http://www.w3.org/2000/svg">
<path d="M24.4855 0.751015C24.4808 0.750988 24.4761 0.750988 24.4714 0.751015C24.4127 0.753225 24.3543 0.759539 24.2966 0.769911H2.00768C1.84208 0.769284 1.67799 0.801395 1.52494 0.864383C1.37188 0.927372 1.23288 1.01999 1.11601 1.13687C0.999128 1.25374 0.906688 1.39256 0.84404 1.54528C0.781391 1.698 0.74978 1.86158 0.751035 2.02655V28.2507C0.751035 30.9955 2.99977 33.2489 5.74926 33.2489H28.246C28.3302 33.2479 28.4141 33.2384 28.4964 33.2206C28.4995 33.2206 28.5027 33.2206 28.5058 33.2206C29.7819 33.1531 30.9839 32.6004 31.8656 31.6755C32.7474 30.7507 33.2423 29.5238 33.249 28.246V18.259C33.2502 18.0944 33.2188 17.9312 33.1564 17.7788C33.0941 17.6264 33.002 17.4878 32.8857 17.371C32.7693 17.2542 32.6308 17.1614 32.4783 17.0982C32.3258 17.0349 32.1623 17.0023 31.997 17.0023H25.7516V2.02655C25.7554 1.85961 25.7256 1.69359 25.6638 1.53836C25.602 1.38314 25.5095 1.24185 25.3919 1.12289C25.2742 1.00393 25.1338 0.909715 24.9789 0.845835C24.8241 0.781955 24.6532 0.749711 24.4855 0.751015ZM7.00591 8.26253H19.492C19.8253 8.26253 20.145 8.39443 20.3806 8.62921C20.6163 8.86399 20.7487 9.18242 20.7487 9.51445C20.7487 9.84648 20.6163 10.1649 20.3806 10.3997C20.145 10.6345 19.8253 10.7664 19.492 10.7664H7.00591C6.67262 10.7664 6.35298 10.6345 6.11731 10.3997C5.88164 10.1649 5.74925 9.84648 5.74925 9.51445C5.74925 9.18242 5.88164 8.86399 6.11731 8.62921C6.35298 8.39443 6.67262 8.26253 7.00591 8.26253ZM7.00591 13.2608H19.492C19.8253 13.2608 20.145 13.3927 20.3806 13.6274C20.6163 13.8622 20.7487 14.1806 20.7487 14.5127C20.7487 14.8447 20.6163 15.1631 20.3806 15.3979C20.145 15.6327 19.8253 15.7646 19.492 15.7646H7.00591C6.67262 15.7646 6.35298 15.6327 6.11731 15.3979C5.88164 15.1631 5.74925 14.8447 5.74925 14.5127C5.74925 14.1806 5.88164 13.8622 6.11731 13.6274C6.35298 13.3927 6.67262 13.2608 7.00591 13.2608ZM7.00118 18.259H19.492C19.8241 18.259 20.1425 18.3909 20.3773 18.6257C20.612 18.8604 20.7439 19.1789 20.7439 19.5109C20.7439 19.8429 20.612 20.1614 20.3773 20.3961C20.1425 20.6309 19.8241 20.7628 19.492 20.7628H7.00591C6.67388 20.7797 6.34873 20.6641 6.10199 20.4412C5.85525 20.2184 5.70713 19.9067 5.69021 19.5747C5.6733 19.2427 5.78897 18.9175 6.01179 18.6708C6.23461 18.424 6.54632 18.2759 6.87835 18.259C6.91927 18.257 6.96026 18.257 7.00118 18.259ZM25.7516 19.5062H30.7499V28.2554C30.7499 29.6633 29.6538 30.7593 28.246 30.7593C27.9166 30.7631 27.5897 30.7009 27.2847 30.5763C26.9798 30.4517 26.7028 30.2673 26.4703 30.0339C26.2378 29.8005 26.0544 29.5228 25.931 29.2174C25.8075 28.9119 25.7466 28.5849 25.7516 28.2554V19.5062ZM7.00118 23.2572H19.492C19.8253 23.2572 20.145 23.3891 20.3806 23.6239C20.6163 23.8587 20.7487 24.1771 20.7487 24.5091C20.7487 24.8412 20.6163 25.1596 20.3806 25.3944C20.145 25.6292 19.8253 25.7611 19.492 25.7611H7.00591C6.67388 25.778 6.34873 25.6623 6.10199 25.4395C5.85525 25.2167 5.70713 24.9049 5.69021 24.5729C5.6733 24.2409 5.78897 23.9157 6.01179 23.669C6.23461 23.4223 6.54632 23.2741 6.87835 23.2572C6.91927 23.2552 6.96026 23.2552 7.00118 23.2572Z" fill="#0081C9"/>
</svg>
